<?xml version="1.0" standalone="no"?>
<!DOCTYPE svg PUBLIC "-//W3C//DTD SVG 20010904//EN"
 "http://www.w3.org/TR/2001/REC-SVG-20010904/DTD/svg10.dtd">
<svg version="1.0" xmlns="http://www.w3.org/2000/svg"
 width="700.000000pt" height="700.000000pt" viewBox="0 0 700.000000 700.000000"
 preserveAspectRatio="xMidYMid meet">
<metadata>
Created by potrace 1.14, written by Peter Selinger 2001-2017
</metadata>
<g transform="translate(0.000000,700.000000) scale(0.100000,-0.100000)"
fill="#000000" stroke="none">
<path d="M3278 6995 c-1 -1 -42 -5 -89 -9 -47 -4 -95 -8 -105 -10 -10 -2 -41
-7 -69 -10 -162 -21 -421 -79 -575 -129 -242 -78 -615 -248 -737 -334 -17 -13
-34 -23 -38 -23 -12 0 -217 -143 -318 -221 -601 -468 -1040 -1133 -1233 -1869
-36 -138 -78 -357 -90 -475 -26 -242 -25 -664 1 -827 2 -13 6 -45 10 -73 12
-96 16 -121 51 -278 32 -145 124 -449 158 -522 8 -16 26 -59 41 -95 35 -83
147 -307 180 -360 14 -22 25 -42 25 -44 0 -8 142 -219 198 -296 126 -170 349
-411 507 -551 169 -149 422 -325 628 -437 150 -82 434 -210 502 -227 6 -1 17
-5 25 -8 53 -22 321 -98 385 -110 11 -2 31 -7 45 -10 25 -6 118 -23 175 -32
17 -3 53 -8 80 -11 28 -3 55 -7 62 -9 28 -9 245 -19 423 -19 202 -1 343 8 467
28 21 4 54 9 73 11 19 3 46 7 60 10 14 2 39 7 55 10 119 23 317 75 455 122
179 60 536 223 621 284 15 10 30 19 34 19 17 0 303 199 406 282 153 124 357
320 454 438 21 25 41 47 45 50 4 3 50 63 103 133 222 295 403 636 518 977 51
152 55 164 74 240 16 63 19 74 30 123 14 60 55 299 60 352 4 33 9 71 11 85 9
47 11 525 4 605 -15 157 -21 210 -25 225 -2 8 -7 35 -10 60 -15 117 -78 375
-125 520 -197 596 -539 1119 -1001 1529 -132 118 -142 126 -241 199 -421 312
-880 516 -1397 623 -53 11 -112 22 -131 24 -19 3 -46 7 -60 10 -13 2 -52 7
-86 11 -33 3 -74 8 -90 10 -32 5 -540 14 -546 9z"/>
</g>
</svg>
